# xmcd
#
# Track frame offsets: 
#        182
#        12605
#        25285
#        38167
#        48982
#        60990
#        73725
#        85370
#        100997
#        111520
#        124902
#        134810
#        147080
#        157295
#        167522
#        179002
#
# Disc length: 2535 seconds
#
# Revision: 0
# Processed by: cddbd v1.5.1PL0 Copyright (c) Steve Scherf et al.
# Submitted via: ExactAudioCopy v0.95a5
#
DISCID=f109e510
DTITLE=Various Artist - Four By Four Vol. 5
DYEAR=1991
DGENRE=Soul
TTITLE0=Impressions - For Your Precious Love
TTITLE1=Butler Jerry - He Will Break Your Heart
TTITLE2=Butler Jerry - Find Another Girl
TTITLE3=Butler Jerry - I'm Telling You
TTITLE4=Butler Jerry - Moon River
TTITLE5=Impressions - It's All Right
TTITLE6=Impressions - Keep On Pushing
TTITLE7=Impressions - Amen
TTITLE8=Lymon Frankie and The Teenagers - Why Do Fools Fall In Love
TTITLE9=Lymon Frankie and The Teenagers - I Want You To Be My Girl
TTITLE10=Lymon Frankie - Goody Goody
TTITLE11=Lymon Frankie - Little Bitty Pretty One
TTITLE12=Marcels - Blue Moon
TTITLE13=Marcels - Summertime
TTITLE14=Marcels - Heartaches
TTITLE15=Marcels - My Melancholy Baby
EXTD=
EXTT0=
EXTT1=
EXTT2=
EXTT3=
EXTT4=
EXTT5=
EXTT6=
EXTT7=
EXTT8=
EXTT9=
EXTT10=
EXTT11=
EXTT12=
EXTT13=
EXTT14=
EXTT15=
PLAYORDER=
